<svg width="38" height="38" viewBox="0 0 38 38" fill="none" xmlns="http://www.w3.org/2000/svg">
<path d="M33.9447 11.5591C33.8016 11.3523 33.6106 11.1833 33.3879 11.0666C33.1652 10.9498 32.9175 10.8888 32.6661 10.8887H11.4067L9.61163 6.57987C9.37626 6.01245 8.9777 5.5277 8.46649 5.18707C7.95527 4.84645 7.35443 4.66529 6.74013 4.66658H3.11108V7.77763H6.74013L14.1195 25.4873C14.2377 25.7706 14.4371 26.0127 14.6926 26.1829C14.9481 26.3531 15.2483 26.444 15.5553 26.4439H27.9995C28.6482 26.4439 29.2284 26.0411 29.457 25.436L34.1236 12.9918C34.2118 12.7563 34.2416 12.5029 34.2104 12.2534C34.1793 12.0039 34.0881 11.7657 33.9447 11.5591V11.5591ZM26.9215 23.3329H16.5928L12.704 13.9997H30.4214L26.9215 23.3329Z" fill="white"/>
<path d="M16.333 32.666C17.6217 32.666 18.6663 31.6214 18.6663 30.3328C18.6663 29.0441 17.6217 27.9995 16.333 27.9995C15.0444 27.9995 13.9998 29.0441 13.9998 30.3328C13.9998 31.6214 15.0444 32.666 16.333 32.666Z" fill="white"/>
<path d="M27.2217 32.666C28.5104 32.666 29.555 31.6214 29.555 30.3328C29.555 29.0441 28.5104 27.9995 27.2217 27.9995C25.9331 27.9995 24.8884 29.0441 24.8884 30.3328C24.8884 31.6214 25.9331 32.666 27.2217 32.666Z" fill="white"/>
</svg>
