<?xml version="1.0" encoding="utf-8"?>
<!-- Generator: Adobe Illustrator 24.2.3, SVG Export Plug-In . SVG Version: 6.00 Build 0)  -->
<svg version="1.1" id="Layer_1" xmlns="http://www.w3.org/2000/svg" xmlns:xlink="http://www.w3.org/1999/xlink" x="0px" y="0px"
	 viewBox="0 0 300 47" style="enable-background:new 0 0 300 47;" xml:space="preserve">
<style type="text/css">
	.st0{fill:#5025D1;}
</style>
<path class="st0" d="M88,13.9h4.4v19.2H88V25h-7.3v8.1h-4.4V13.9h4.4v7.3H88V13.9z M116.6,19c-0.5-1.3-1.2-2.3-2.1-3.2
	c-0.9-0.9-1.9-1.5-3.1-1.9c-1.2-0.4-2.4-0.6-3.7-0.6c-1.3,0-2.5,0.2-3.7,0.6c-1.2,0.4-2.2,1.1-3.1,1.9c-0.9,0.9-1.6,1.9-2.1,3.2
	c-0.5,1.3-0.8,2.7-0.8,4.3c0,1.6,0.3,3.1,0.8,4.3c0.5,1.3,1.2,2.3,2.1,3.1c0.9,0.8,1.9,1.5,3.1,1.9c1.2,0.4,2.4,0.6,3.7,0.6
	c1.4,0,2.6-0.2,3.8-0.6c1.2-0.4,2.2-1.1,3-1.9c0.9-0.8,1.5-1.9,2-3.1c0.5-1.2,0.7-2.7,0.7-4.3C117.3,21.7,117.1,20.3,116.6,19z
	 M103,20.8c0.2-0.8,0.6-1.4,1-2c0.4-0.5,1-1,1.6-1.3c0.6-0.3,1.4-0.5,2.2-0.5c0.8,0,1.5,0.1,2.2,0.4c0.6,0.3,1.2,0.7,1.6,1.3
	c0.4,0.5,0.8,1.2,1,2c0.2,0.8,0.3,1.6,0.3,2.6c0,0.9-0.1,1.8-0.3,2.6c-0.2,0.8-0.6,1.4-1,2c-0.4,0.5-1,1-1.6,1.3
	c-0.6,0.3-1.4,0.4-2.2,0.4c-0.8,0-1.5-0.1-2.2-0.4c-0.6-0.3-1.2-0.7-1.6-1.3c-0.4-0.5-0.8-1.2-1-2c-0.2-0.8-0.3-1.6-0.3-2.6
	C102.6,22.5,102.8,21.6,103,20.8z M125.1,29.4c-0.8-0.2-1.6-0.5-2.1-0.8l-1.2,3.4c0.3,0.1,0.6,0.3,1,0.5c0.4,0.2,0.8,0.3,1.4,0.5
	c0.5,0.1,1.1,0.3,1.8,0.4c0.7,0.1,1.5,0.2,2.3,0.2c2.5,0,4.4-0.5,5.7-1.5c1.3-1,1.9-2.4,1.9-4.2c0-0.9-0.1-1.7-0.4-2.4
	c-0.2-0.6-0.6-1.2-1.1-1.7c-0.5-0.5-1.1-0.9-1.8-1.3c-0.7-0.4-1.6-0.7-2.6-1.1c-0.5-0.2-0.9-0.3-1.3-0.5c-0.4-0.2-0.8-0.3-1.1-0.5
	c-0.3-0.2-0.5-0.4-0.7-0.7c-0.2-0.2-0.3-0.5-0.3-0.9c0-0.6,0.2-1,0.7-1.3c0.5-0.3,1.2-0.4,2.2-0.4c0.9,0,1.7,0.1,2.4,0.3
	c0.7,0.2,1.3,0.5,1.8,0.7l1.3-3.4c-0.6-0.3-1.4-0.6-2.3-0.9c-0.9-0.3-2.1-0.4-3.4-0.4c-1.1,0-2.1,0.1-2.9,0.4
	c-0.9,0.3-1.6,0.7-2.2,1.2c-0.6,0.5-1.1,1.1-1.4,1.8c-0.3,0.7-0.5,1.5-0.5,2.4s0.2,1.6,0.5,2.3c0.3,0.6,0.7,1.1,1.2,1.6
	c0.5,0.4,1.1,0.8,1.7,1.1s1.3,0.5,1.9,0.8c1.4,0.5,2.5,0.9,3.1,1.3c0.6,0.4,0.9,0.9,0.9,1.6c0,0.3,0,0.6-0.1,0.8
	c-0.1,0.2-0.3,0.4-0.5,0.6c-0.2,0.2-0.6,0.3-1,0.4c-0.4,0.1-0.9,0.2-1.5,0.2C127,29.7,126,29.6,125.1,29.4z M139,13.8v3.7h5.8V33
	h4.3V17.5h5.8v-3.7H139z M159.8,33h4.3V13.8h-4.3V33z M187.1,33V13.8h-4.3v11.4c-0.7-1-1.4-2-2.1-3.1c-0.8-1.1-1.5-2.1-2.3-3.1
	c-0.8-1-1.5-2-2.3-2.8c-0.7-0.9-1.4-1.6-2-2.3h-3.5V33h4.3V20.4c1.6,1.9,3.2,3.9,4.6,6.1c1.4,2.1,2.8,4.3,4,6.5H187.1z M205.5,17.5
	c0.8,0.2,1.4,0.5,2,0.8l1.3-3.5c-0.1-0.1-0.4-0.2-0.7-0.4c-0.3-0.2-0.8-0.3-1.3-0.5c-0.5-0.2-1.2-0.3-1.9-0.4
	c-0.7-0.1-1.6-0.2-2.5-0.2c-1.3,0-2.6,0.2-3.8,0.7c-1.2,0.4-2.2,1.1-3.1,2c-0.9,0.9-1.6,1.9-2.1,3.2c-0.5,1.2-0.8,2.7-0.8,4.3
	c0,1.6,0.2,3,0.7,4.3c0.5,1.2,1.1,2.3,1.9,3.1c0.8,0.9,1.8,1.5,3,1.9c1.2,0.4,2.5,0.7,3.9,0.7c1.7,0,3.1-0.1,4.3-0.3
	c1.1-0.2,2-0.4,2.5-0.7v-9.5h-4.3v6.7c-0.3,0.1-0.6,0.1-0.9,0.1c-0.3,0-0.8,0-1.2,0c-0.9,0-1.7-0.2-2.3-0.5
	c-0.7-0.3-1.2-0.7-1.7-1.3c-0.4-0.6-0.8-1.2-1-2c-0.2-0.8-0.3-1.6-0.3-2.6c0-1.9,0.4-3.5,1.3-4.6c0.9-1.1,2.4-1.7,4.4-1.7
	C203.9,17.1,204.8,17.2,205.5,17.5z M228.8,33v-3.6h-9.3v-4.6h7.7v-3.6h-7.7v-3.8h8.7v-3.6h-13V33H228.8z M237,13.7
	c-1,0.1-2,0.2-2.9,0.4v19h4.3v-7h2.1c0.4,0.4,0.7,0.9,1.1,1.5c0.4,0.5,0.7,1.1,1.1,1.7c0.4,0.6,0.8,1.2,1.1,1.9
	c0.4,0.6,0.7,1.3,1.1,1.9h4.8c-0.3-0.7-0.7-1.4-1.1-2.2c-0.4-0.7-0.8-1.4-1.2-2.1c-0.4-0.7-0.8-1.3-1.3-1.9
	c-0.4-0.6-0.8-1.2-1.2-1.7c1.2-0.5,2.1-1.1,2.7-2c0.6-0.8,0.9-1.9,0.9-3.3c0-2.2-0.8-3.8-2.3-4.8c-1.5-1-3.8-1.5-6.6-1.5
	C238.9,13.6,238,13.6,237,13.7z M243.1,17.8c0.7,0.4,1.1,1.1,1.1,2c0,1-0.4,1.7-1.1,2.1c-0.7,0.4-1.9,0.6-3.5,0.6h-1.2v-5.2
	c0.2,0,0.5,0,0.7-0.1c0.3,0,0.5,0,0.8,0C241.3,17.2,242.4,17.4,243.1,17.8z M29.2,46.2V32.8l-10.9-6.3l0,14.1L29.2,46.2z M57.7,46.5
	V25l-36.9-0.2c0,0,11.2,6.2,11.2,6.1l14.5,0v9.6L57.7,46.5z M57.7,20.7V6.2L46.6,0.5v13.7L57.7,20.7z M54.7,22l-11-6l-14.4,0V6.3
	L18.4,0.5V22H54.7z M255.5,30.4c-0.3-0.4-0.8-0.5-1.3-0.5c-0.5,0-1,0.2-1.3,0.5c-0.3,0.4-0.5,0.8-0.5,1.2c0,0.5,0.2,0.9,0.5,1.2
	c0.3,0.4,0.8,0.5,1.3,0.5c0.5,0,1-0.2,1.3-0.5c0.3-0.4,0.5-0.8,0.5-1.2C256,31.1,255.8,30.7,255.5,30.4z M259.8,33h2.6V14.6h-2.6V33
	z M281.6,33V14.6h-2.5v13.6c-0.6-0.9-1.3-2-2.1-3.2c-0.8-1.2-1.7-2.4-2.6-3.7c-0.9-1.3-1.9-2.5-2.8-3.6c-0.9-1.2-1.8-2.2-2.7-3.1h-2
	V33h2.5V18.7c0.5,0.6,1,1.2,1.6,2c0.6,0.7,1.2,1.5,1.8,2.4c0.6,0.8,1.2,1.7,1.9,2.6c0.6,0.9,1.2,1.8,1.8,2.7
	c0.6,0.9,1.1,1.7,1.6,2.5c0.5,0.8,1,1.5,1.4,2.2H281.6z"/>
</svg>
